<svg xmlns="http://www.w3.org/2000/svg" xmlns:xlink="http://www.w3.org/1999/xlink" viewBox="0 0 143.98 143.98"><defs><radialGradient id="FC_Logo_Gradient" cx="143.77" cy="0" r="203.37" gradientUnits="userSpaceOnUse"><stop offset="0" stop-color="#67dfff"/><stop offset="1" stop-color="#3253ff"/></radialGradient></defs><path fill="url(#FC_Logo_Gradient)" d="M42.52,48.88,2.29,66.38A1.63,1.63,0,0,1,.13,64.26l14.67-36A24.49,24.49,0,0,1,28.26,14.8L64.26.13a1.63,1.63,0,0,1,2.12,2.16L48.88,42.52A12.27,12.27,0,0,1,42.52,48.88Zm58.93,0,40.23,17.5a1.64,1.64,0,0,0,2.17-2.12l-14.67-36A24.55,24.55,0,0,0,115.72,14.8L79.71.13a1.63,1.63,0,0,0-2.12,2.16L95.1,42.52A12.29,12.29,0,0,0,101.45,48.88ZM95.1,101.45,77.59,141.68a1.64,1.64,0,0,0,2.12,2.17l36-14.67a24.62,24.62,0,0,0,13.46-13.46l14.67-36a1.64,1.64,0,0,0-2.17-2.12L101.45,95.1A12.3,12.3,0,0,0,95.1,101.45ZM42.52,95.1,2.29,77.59A1.63,1.63,0,0,0,.13,79.71l14.67,36a24.55,24.55,0,0,0,13.46,13.46l36,14.67a1.64,1.64,0,0,0,2.12-2.17l-17.5-40.23A12.29,12.29,0,0,0,42.52,95.1Z"/></svg>
